<svg xmlns="http://www.w3.org/2000/svg" xmlns:xlink="http://www.w3.org/1999/xlink" version="1.1" width="110" height="110" style="" xml:space="preserve"><rect id="backgroundrect" width="100%" height="100%" x="0" y="0" fill="none" stroke="none" style="" class=""/>
<style type="text/css">
	.st0{fill:#28777e;}
	.st1{fill:none;}
	.st2{fill:#39373A;}
		#big{
    	display:block;
    }
	#small{
    	display:none;
    }
	
    @media screen and (max-width: 200px){
    	#small{
    		display:block;
    	}
    	#big{
    		display:none;
    	}
    }

</style>



<g class="currentLayer" style=""><title>Layer 1</title><g id="symbol" class="">
	<path class="st0" d="M13.275888470694058,11.20877424768276 c1.1086718648696279,1.0898269655468409 5.34178262164457,5.2509844703620505 5.34178262164457,5.2509844703620505 c2.0157670270356864,1.6842780376633018 5.240994270292785,3.269480896640522 7.357549648680256,3.3685560753265986 c0,0 0.6047301081107068,0 1.814190324332118,0.0990751786860767 c-0.40315340540713723,-0.29722553605822966 -0.7055184594624916,-0.4953758934303828 -1.1086718648696279,-0.7926014294886117 c-0.10078835135178436,-0.0990751786860767 -6.652031189217766,-6.638036971967121 -10.280411837882,-10.105668225979793 C15.291655497729746,9.524496210019462 14.283771984211901,10.317097639508072 13.275888470694058,11.20877424768276 z" id="svg_1"/>
	<path class="st0" d="M25.068125578852825,86.90221076384513 c0.8063068108142746,-0.19815035737215317 1.7134019729803347,-0.19815035737215317 2.318132081091039,-0.29722553605822966 c0.6047301081107068,-0.0990751786860767 8.466221513549884,-1.1889021442329173 27.616008270388907,-1.1889021442329173 c2.116555378387471,0 4.031534054071373,0 5.946512729755278,0.0990751786860767 c14.815887648712296,0.19815035737215317 21.064765432522922,1.0898269655468409 21.66949554063363,1.1889021442329173 c0.6047301081107068,0.0990751786860767 1.511825270276765,0.0990751786860767 2.318132081091039,0.29722553605822966 L59.03379998440413,61.43988984152351 c-1.2094602162214119,0.6935262508025359 -2.5197087837946084,1.0898269655468409 -3.930745702719589,1.0898269655468409 c-1.4110369189249805,0 -2.8220738378499606,-0.3963007147443064 -4.031534054071373,-1.0898269655468409 L25.068125578852825,86.90221076384513 z" id="svg_2"/>
	<path class="st0" d="M87.15375001155196,28.249704981687906 v-0.19815035737215317 h0 c0.10078835135178436,-0.8916766081746889 0.20157670270356862,-1.6842780376633018 0.3023650540553533,-2.575954645837987 L61.553508768198746,51.03699607948548 c0.7055184594624916,1.1889021442329173 1.2094602162214119,2.4768794671519108 1.2094602162214119,3.8639319687569795 c0,1.38705250160507 -0.5039417567589218,2.7741050032101398 -1.2094602162214119,3.963007147443057 l26.003394648760356,25.46232092232164 c-0.20157670270356862,-0.7926014294886117 -0.3023650540553533,-1.6842780376633018 -0.3023650540553533,-2.377804288465834 c-0.10078835135178436,-0.6935262508025359 -1.2094602162214119,-8.322315009630419 -1.2094602162214119,-27.04752378129886 c0,-2.0805787524076047 0,-3.963007147443057 0,-5.8454355424785085 C86.24665484938592,34.590516417596795 87.15375001155196,28.44785533906006 87.15375001155196,28.249704981687906 z" id="svg_3"/>
	<path class="st0" d="M82.21512079531453,23.395021226070163 c-0.20157670270356862,0 -8.063068108142746,1.1889021442329173 -27.212854864981768,1.1889021442329173 c-2.116555378387471,0 -4.132322405423157,0 -5.946512729755278,0 c-14.715099297360512,-0.19815035737215317 -21.064765432522922,-1.0898269655468409 -21.66949554063363,-1.1889021442329173 c-0.6047301081107068,0 -1.511825270276765,-0.19815035737215317 -2.318132081091039,-0.3963007147443064 l25.90260629740857,25.561396101007716 c1.2094602162214119,-0.6935262508025359 2.5197087837946084,-1.0898269655468409 4.031534054071373,-1.0898269655468409 c1.511825270276765,0 2.8220738378499606,0.3963007147443064 3.930745702719589,1.0898269655468409 l26.003394648760356,-25.561396101007716 c-0.8063068108142746,0.19815035737215317 -1.7134019729803347,0.29722553605822966 -2.6204971351463926,0.3963007147443064 H82.21512079531453 z" id="svg_4"/>
	<path class="st0" d="M59.13458833575592,55.000003226928534 c0,-2.1796539310936818 -1.814190324332118,-3.963007147443057 -4.031534054071373,-3.963007147443057 c-2.2173437297392558,0 -4.031534054071373,1.7833532163493764 -4.031534054071373,3.963007147443057 c0,2.1796539310936818 1.7134019729803347,4.062082326129132 4.031534054071373,4.062082326129132 C57.32039801142382,58.96301037437159 59.13458833575592,57.179657158022216 59.13458833575592,55.000003226928534 z" id="svg_5"/>
	<path class="st0" d="M27.386257659943865,90.76614273260212 c0.3023650540553533,-0.29722553605822966 0.7055184594624916,-0.5944510721164595 1.0078835135178432,-0.7926014294886117 c-1.511825270276765,0.0990751786860767 -2.4189204324428237,0.19815035737215317 -2.4189204324428237,0.19815035737215317 c-2.116555378387471,0.0990751786860767 -5.34178262164457,1.5852028589772225 -7.357549648680256,3.269480896640522 L13.275888470694058,98.79123220617431 c1.1086718648696279,0.9907517868607645 2.318132081091039,1.7833532163493764 3.5275922973124514,2.377804288465834 C20.633438119374315,97.50325488325532 27.28546930859208,90.8652179112882 27.386257659943865,90.76614273260212 z" id="svg_6"/>
	<path class="st0" d="M22.548416795058213,84.42533129669324 L48.551811443818565,58.86393519568552 c-0.7055184594624916,-1.1889021442329173 -1.2094602162214119,-2.4768794671519108 -1.2094602162214119,-3.8639319687569795 c0,-1.38705250160507 0.5039417567589218,-2.6750298245240636 1.2094602162214119,-3.8639319687569795 L22.548416795058213,25.57467515716384 c0.20157670270356862,0.7926014294886117 0.3023650540553533,1.6842780376633018 0.40315340540713723,2.278729109779757 c0.10078835135178436,0.5944510721164595 1.2094602162214119,8.322315009630419 1.2094602162214119,27.14659895998494 c0,18.72520877166844 -1.1086718648696279,26.4530727091824 -1.2094602162214119,27.04752378129886 C22.85078184911357,82.74105325902993 22.64920514641,83.63272986720463 22.548416795058213,84.42533129669324 z" id="svg_7"/>
	<path class="st0" d="M82.61827420072167,19.233863721254952 c-0.3023650540553533,0.19815035737215317 -0.6047301081107068,0.3963007147443064 -0.8063068108142746,0.5944510721164595 H81.81196738990741 c0.10078835135178436,0 0.10078835135178436,0 0.20157670270356862,0 c4.132322405423157,-0.19815035737215317 7.357549648680256,-1.6842780376633018 9.373316675715945,-3.3685560753265986 l5.442570972996355,-5.2509844703620505 c-1.1086718648696279,-0.9907517868607645 -2.318132081091039,-1.7833532163493764 -3.628380648664236,-2.377804288465834 C89.37109374129122,12.496751570601754 82.71906255207347,19.13478854256887 82.61827420072167,19.233863721254952 z" id="svg_8"/>
	<path class="st0" d="M19.423977903152903,81.55215111479704 c-0.3023650540553533,0.3963007147443064 -0.6047301081107068,0.7926014294886117 -1.0078835135178432,1.1889021442329173 c-0.10078835135178436,0.0990751786860767 -6.450454486514197,6.340811435908891 -9.675681729771295,9.511217153863337 c0.5039417567589218,1.2879773229189935 1.1086718648696279,2.575954645837987 1.9149786756839022,3.5667064326987514 c1.1086718648696279,-1.0898269655468409 5.140205918941,-5.052834112989896 5.140205918941,-5.151909291675974 c1.7134019729803347,-1.8824283950354523 3.326015594608883,-5.151909291675974 3.426803945960667,-7.2324880440835795 C19.22240120044933,83.53365468851855 19.323189551801118,82.84012843771603 19.423977903152903,81.55215111479704 z" id="svg_9"/>
	<path class="st0" d="M55.00226593033276,104.33944221259459 c21.971860594688984,0 30.841235513646005,-1.38705250160507 30.841235513646005,-1.38705250160507 c1.3102485675731963,-0.0990751786860767 2.5197087837946084,-0.19815035737215317 3.628380648664236,-0.4953758934303828 l-8.970163270308806,-8.817690903060802 c-1.7134019729803347,-1.4861276802911465 -4.4346874594785115,-3.665781611384828 -6.551242837865981,-4.161157504815209 c-0.10078835135178436,0 -0.10078835135178436,0 -0.10078835135178436,0 c-0.7055184594624916,0 -1.4110369189249805,-0.0990751786860767 -2.116555378387471,-0.0990751786860767 c-1.7134019729803347,0 -8.365433162198102,0 -21.971860594688984,-0.0990751786860767 c-4.535475810830294,0 -7.4583380000320405,0.0990751786860767 -9.171739973012373,0.0990751786860767 c-1.3102485675731963,0 -2.6204971351463926,0 -3.7291690000160203,0.0990751786860767 c0,0 -0.10078835135178436,0 -0.10078835135178436,0 c-2.116555378387471,0.5944510721164595 -4.8378408648856475,2.6750298245240636 -6.551242837865981,4.161157504815209 l-9.272528324364156,9.114916439119028 c1.0078835135178432,0.19815035737215317 2.116555378387471,0.29722553605822966 3.2252272432570996,0.3963007147443064 C24.161030416686767,102.95238971098952 33.030405335643785,104.33944221259459 55.00226593033276,104.33944221259459 z" id="svg_10"/>
	<path class="st0" d="M55.00226593033276,5.660564241262481 c-21.971860594688984,0 -30.841235513646005,1.2879773229189935 -30.841235513646005,1.2879773229189935 c-1.3102485675731963,0.0990751786860767 -2.5197087837946084,0.29722553605822966 -3.628380648664236,0.4953758934303828 l8.970163270308806,8.817690903060802 c1.7134019729803347,1.4861276802911465 4.4346874594785115,3.665781611384828 6.551242837865981,4.161157504815209 c0.10078835135178436,0 0.10078835135178436,0.0990751786860767 0.10078835135178436,0.0990751786860767 c0.7055184594624916,0 1.4110369189249805,0.0990751786860767 2.2173437297392558,0.0990751786860767 c1.814190324332118,0 8.365433162198102,0 21.8710722433372,0.19815035737215317 c4.132322405423157,0 6.954396243273119,0 8.667798216253452,-0.0990751786860767 c1.6126136216285496,-0.0990751786860767 3.124438891905314,-0.19815035737215317 4.4346874594785115,-0.19815035737215317 c2.116555378387471,-0.5944510721164595 4.7370525135338655,-2.575954645837987 6.450454486514197,-4.062082326129132 l9.272528324364156,-9.114916439119028 c-1.0078835135178432,-0.19815035737215317 -2.116555378387471,-0.3963007147443064 -3.2252272432570996,-0.3963007147443064 C85.84350144397878,6.9485415641814745 76.97412652502176,5.660564241262481 55.00226593033276,5.660564241262481 z" id="svg_11"/>
	<path class="st0" d="M7.228587389586999,24.58392337030308 c0,0 -1.511825270276765,14.167750552108927 -1.511825270276765,30.41607985662546 C5.615973767958447,71.24833253144507 7.228587389586999,85.416083083554 7.228587389586999,85.416083083554 c0.10078835135178436,0.8916766081746889 0.20157670270356862,1.7833532163493764 0.40315340540713723,2.575954645837987 l8.063068108142746,-8.025089473572189 c1.7134019729803347,-1.8824283950354523 4.132322405423157,-4.953758934303823 4.333899108126726,-7.034337686711426 c0,-0.0990751786860767 0,-0.0990751786860767 0,-0.19815035737215317 v-0.3963007147443064 c0,-0.5944510721164595 0,-7.8269391162000375 0.20157670270356862,-22.49006556173935 c-0.10078835135178436,-5.151909291675974 -0.10078835135178436,-8.421390188316495 -0.10078835135178436,-9.808442689921565 c0,-0.9907517868607645 -0.10078835135178436,-1.9815035737215285 -0.10078835135178436,-2.873180181896216 c0,0 0,-0.0990751786860767 0,-0.0990751786860767 c-0.6047301081107068,-2.0805787524076047 -2.7212854864981777,-4.6565333982455925 -4.233110756774942,-6.439886614594967 l-8.365433162198102,-8.223239830944346 C7.329375740938781,23.09779569001193 7.228587389586999,23.79132194081447 7.228587389586999,24.58392337030308 z" id="svg_12"/>
	<path class="st0" d="M8.639624308511978,18.14403675570811 c3.426803945960667,3.3685560753265986 9.877258432474866,9.709367511235492 9.978046783826649,9.808442689921565 c0.3023650540553533,0.3963007147443064 0.6047301081107068,0.6935262508025359 0.9070951621660592,1.0898269655468409 c-0.10078835135178436,-1.4861276802911465 -0.3023650540553533,-2.4768794671519108 -0.3023650540553533,-2.4768794671519108 c-0.10078835135178436,-2.0805787524076047 -1.6126136216285496,-5.2509844703620505 -3.426803945960667,-7.2324880440835795 l-5.140205918941,-5.052834112989896 C9.84908452473339,15.36993175249797 9.1435660652709,16.657909075416963 8.639624308511978,18.14403675570811 z" id="svg_13"/>
	<path class="st0" d="M102.37279106567141,22.00796872446509 l-8.063068108142746,8.025089473572189 c-1.511825270276765,1.6842780376633018 -3.7291690000160203,4.3593078621873635 -4.233110756774942,6.439886614594967 c0,0.0990751786860767 0,0.0990751786860767 0,0.19815035737215317 c0,0.5944510721164595 -0.10078835135178436,1.0898269655468409 -0.10078835135178436,1.6842780376633018 c0,1.2879773229189935 0,8.124164652258266 -0.20157670270356862,21.895614489622886 c0,2.873180181896216 0,5.5482100064202795 0,7.2324880440835795 c0,0.0990751786860767 0,0.19815035737215317 0,0.29722553605822966 c0.10078835135178436,1.9815035737215285 0.20157670270356862,3.764856790070904 0.20157670270356862,5.350059649048127 c0.6047301081107068,2.0805787524076047 2.7212854864981777,4.6565333982455925 4.132322405423157,6.340811435908891 l8.365433162198102,8.223239830944346 c0.10078835135178436,-0.6935262508025359 0.20157670270356862,-1.38705250160507 0.3023650540553533,-2.1796539310936818 c0,0 1.511825270276765,-13.57329947999247 1.511825270276765,-30.41607985662546 c0,-16.24832930451653 -1.511825270276765,-30.41607985662546 -1.511825270276765,-30.41607985662546 C102.77594447107855,23.69224676212839 102.57436776837496,22.8005701539537 102.37279106567141,22.00796872446509 z" id="svg_14"/>
	<path class="st0" d="M96.82943174132328,98.69215702748822 c-1.1086718648696279,-1.0898269655468409 -5.34178262164457,-5.151909291675974 -5.442570972996355,-5.2509844703620505 c-2.0157670270356864,-1.6842780376633018 -5.240994270292785,-3.1704057179544454 -7.357549648680256,-3.269480896640522 c0,0 -0.6047301081107068,-0.0990751786860767 -1.814190324332118,-0.19815035737215317 c0.40315340540713723,0.29722553605822966 0.8063068108142746,0.5944510721164595 1.1086718648696279,0.8916766081746889 c0.10078835135178436,0.0990751786860767 6.652031189217766,6.538961793281045 10.280411837882,10.105668225979793 C94.7128763629358,100.37643506515154 95.82154822780544,99.58383363566293 96.82943174132328,98.69215702748822 z" id="svg_15"/>
	<path class="st0" d="M94.20893460617687,19.13478854256887 c-1.7134019729803347,1.8824283950354523 -3.2252272432570996,5.052834112989896 -3.5275922973124514,9.015841260432955 c0.3023650540553533,-0.29722553605822966 0.5039417567589218,-0.6935262508025359 0.8063068108142746,-0.9907517868607645 c0.10078835135178436,-0.0990751786860767 6.450454486514197,-6.340811435908891 9.675681729771295,-9.511217153863337 c-0.5039417567589218,-1.2879773229189935 -1.2094602162214119,-2.4768794671519108 -1.9149786756839022,-3.5667064326987514 C97.13179679537862,16.26160836067266 94.51129966023223,18.93663818519672 94.20893460617687,19.13478854256887 z" id="svg_16"/>
	<path class="st0" d="M99.34914052511787,95.81897684559202 c0.8063068108142746,-1.1889021442329173 1.511825270276765,-2.4768794671519108 2.0157670270356864,-3.963007147443057 C97.9381036061929,88.48741362282236 91.4876491196787,82.14660218691348 91.38686076832691,82.14660218691348 c-0.3023650540553533,-0.29722553605822966 -0.5039417567589218,-0.5944510721164595 -0.8063068108142746,-0.8916766081746889 c0.10078835135178436,1.4861276802911465 0.3023650540553533,2.278729109779757 0.3023650540553533,2.278729109779757 c0.10078835135178436,2.0805787524076047 1.6126136216285496,5.350059649048127 3.326015594608883,7.331563222769655 L99.34914052511787,95.81897684559202 z" id="svg_17"/>
</g><g id="small" class="">
	<polygon class="st2" points="127.8045044997707,14.999998998641967 113.60449992213398,14.999998998641967 113.60449992213398,86.99999995231629 124.3045044997707,86.99999995231629 151.1045075515285,47.40000147819519 156.0045014480129,37.70000071525574 156.5045014480129,37.70000071525574 155.70449839625508,47.100002241134646 155.70449839625508,86.99999995231629 169.8045044997707,86.99999995231629 169.8045044997707,14.999998998641967 159.3045044997707,14.999998998641967 132.40449534449726,53.90000147819519 127.3045044997707,63.89999766349793 126.70449839625508,63.89999766349793 127.8045044997707,54.20000071525574 " id="svg_67"/>
	<path class="st2" d="M213.70449954066424,26.099999999999998 c3.1,0 5.7,0.2 7.9,0.5 c2.2,0.3000000000000001 4,0.9 5.6,1.7000000000000002 l2.8,-12 c-1.9,-0.8 -4.2,-1.4 -7,-2 c-2.9,-0.5 -6.3,-0.8 -10.5,-0.8 c-3.8,0 -7.7,0.6000000000000002 -11.5,1.9 c-3.8,1.3 -7.3,3.4 -10.4,6.3 c-3.1,2.9 -5.7,6.8 -7.6,11.5 c-2,4.8 -2.9,10.7 -2.9,17.8 c0,6.8 0.9,12.6 2.6,17.3 c1.7000000000000002,4.8 4.1,8.6 7,11.6 c2.9,3 6.4,5.1 10.3,6.5 c3.9,1.3 8,2 12.3,2 c3.6,0 7.1,-0.3000000000000001 10.5,-1 c3.4,-0.7000000000000002 6.2,-1.8 8.4,-3.4 l-2.9,-11.5 c-1.6,1 -3.4,1.8 -5.6,2.4 c-2.1,0.6000000000000002 -4.7,0.9 -7.8,0.9 c-3.3,0 -6.2,-0.6000000000000002 -8.7,-1.8 c-2.5,-1.2 -4.6,-2.9 -6.3,-5.1 c-1.7000000000000002,-2.2 -2.9,-4.8 -3.8,-7.8 c-0.8,-3.1 -1.2,-6.5 -1.2,-10.2 c0,-8.5 1.7000000000000002,-14.8 5.2,-18.9 C203.50449954066426,28.099999999999998 208.00449954066426,26.099999999999998 213.70449954066424,26.099999999999998 z" id="svg_68"/>
	<polygon class="st2" points="258.5044861892238,53.90000147819519 253.5045014480129,63.89999766349793 252.90449534449726,63.89999766349793 253.90449534449726,54.20000071525574 253.90449534449726,14.999998998641967 239.8045044997707,14.999998998641967 239.8045044997707,86.99999995231629 250.40449534449726,86.99999995231629 277.3044739821926,47.40000147819519 282.10449229273945,37.70000071525574 282.60449229273945,37.70000071525574 281.8044739821926,47.100002241134646 281.8044739821926,86.99999995231629 295.9044800857082,86.99999995231629 295.9044800857082,14.999998998641967 285.4044800857082,14.999998998641967 " id="svg_69"/>
</g></g></svg>