<svg version="1.1" id="Layer_3" xmlns="http://www.w3.org/2000/svg" xmlns:xlink="http://www.w3.org/1999/xlink" x="0px" y="0px"
	 width="480px" height="103.6px" viewBox="0 0 480 103.6" style="enable-background:new 0 0 480 103.6;" xml:space="preserve">
<style type="text/css">
	.st0{fill:#28777e;}
	.st1{fill:none;}
	.st2{fill:#39373A;}
		#big{
    	display:block;
    }
	#small{
    	display:none;
    }
	
    @media screen and (max-width: 200px){
    	#small{
    		display:block;
    	}
    	#big{
    		display:none;
    	}
    }

</style>
<g id="symbol">
	<path class="st0" d="M12,8.4c1.1,1.1,5.3,5.3,5.3,5.3c2,1.7,5.2,3.3,7.3,3.4c0,0,0.6,0,1.8,0.1c-0.4-0.3-0.7-0.5-1.1-0.8
		c-0.1-0.1-6.6-6.7-10.2-10.2C14,6.7,13,7.5,12,8.4z"/>
	<path class="st0" d="M23.7,84.8c0.8-0.2,1.7-0.2,2.3-0.3c0.6-0.1,8.4-1.2,27.4-1.2c2.1,0,4,0,5.9,0.1c14.7,0.2,20.9,1.1,21.5,1.2
		c0.6,0.1,1.5,0.1,2.3,0.3L57.4,59.1c-1.2,0.7-2.5,1.1-3.9,1.1c-1.4,0-2.8-0.4-4-1.1L23.7,84.8z"/>
	<path class="st0" d="M85.3,25.6v-0.2h0c0.1-0.9,0.2-1.7,0.3-2.6L59.9,48.6c0.7,1.2,1.2,2.5,1.2,3.9c0,1.4-0.5,2.8-1.2,4l25.8,25.7
		c-0.2-0.8-0.3-1.7-0.3-2.4c-0.1-0.7-1.2-8.4-1.2-27.3c0-2.1,0-4,0-5.9C84.4,32,85.3,25.8,85.3,25.6z"/>
	<path class="st0" d="M80.4,20.7c-0.2,0-8,1.2-27,1.2c-2.1,0-4.1,0-5.9,0c-14.6-0.2-20.9-1.1-21.5-1.2c-0.6,0-1.5-0.2-2.3-0.4
		l25.7,25.8c1.2-0.7,2.5-1.1,4-1.1c1.5,0,2.8,0.4,3.9,1.1l25.8-25.8c-0.8,0.2-1.7,0.3-2.6,0.4H80.4z"/>
	<path class="st0" d="M57.5,52.6c0-2.2-1.8-4-4-4c-2.2,0-4,1.8-4,4c0,2.2,1.7,4.1,4,4.1C55.7,56.6,57.5,54.8,57.5,52.6z"/>
	<path class="st0" d="M26,88.7c0.3-0.3,0.7-0.6,1-0.8c-1.5,0.1-2.4,0.2-2.4,0.2c-2.1,0.1-5.3,1.6-7.3,3.3L12,96.8
		c1.1,1,2.3,1.8,3.5,2.4C19.3,95.5,25.9,88.8,26,88.7z"/>
	<path class="st0" d="M21.2,82.3L47,56.5c-0.7-1.2-1.2-2.5-1.2-3.9c0-1.4,0.5-2.7,1.2-3.9L21.2,22.9c0.2,0.8,0.3,1.7,0.4,2.3
		c0.1,0.6,1.2,8.4,1.2,27.4c0,18.9-1.1,26.7-1.2,27.3C21.5,80.6,21.3,81.5,21.2,82.3z"/>
	<path class="st0" d="M80.8,16.5c-0.3,0.2-0.6,0.4-0.8,0.6H80c0.1,0,0.1,0,0.2,0c4.1-0.2,7.3-1.7,9.3-3.4l5.4-5.3
		c-1.1-1-2.3-1.8-3.6-2.4C87.5,9.7,80.9,16.4,80.8,16.5z"/>
	<path class="st0" d="M18.1,79.4c-0.3,0.4-0.6,0.8-1,1.2c-0.1,0.1-6.4,6.4-9.6,9.6c0.5,1.3,1.1,2.6,1.9,3.6c1.1-1.1,5.1-5.1,5.1-5.2
		c1.7-1.9,3.3-5.2,3.4-7.3C17.9,81.4,18,80.7,18.1,79.4z"/>
	<path class="st0" d="M53.4,102.4c21.8,0,30.6-1.4,30.6-1.4c1.3-0.1,2.5-0.2,3.6-0.5l-8.9-8.9c-1.7-1.5-4.4-3.7-6.5-4.2
		c-0.1,0-0.1,0-0.1,0c-0.7,0-1.4-0.1-2.1-0.1c-1.7,0-8.3,0-21.8-0.1c-4.5,0-7.4,0.1-9.1,0.1c-1.3,0-2.6,0-3.7,0.1c0,0-0.1,0-0.1,0
		c-2.1,0.6-4.8,2.7-6.5,4.2l-9.2,9.2c1,0.2,2.1,0.3,3.2,0.4C22.8,101,31.6,102.4,53.4,102.4z"/>
	<path class="st0" d="M53.4,2.8c-21.8,0-30.6,1.3-30.6,1.3c-1.3,0.1-2.5,0.3-3.6,0.5l8.9,8.9c1.7,1.5,4.4,3.7,6.5,4.2
		c0.1,0,0.1,0.1,0.1,0.1c0.7,0,1.4,0.1,2.2,0.1c1.8,0,8.3,0,21.7,0.2c4.1,0,6.9,0,8.6-0.1c1.6-0.1,3.1-0.2,4.4-0.2
		c2.1-0.6,4.7-2.6,6.4-4.1l9.2-9.2c-1-0.2-2.1-0.4-3.2-0.4C84,4.1,75.2,2.8,53.4,2.8z"/>
	<path class="st0" d="M6,21.9c0,0-1.5,14.3-1.5,30.7C4.4,69,6,83.3,6,83.3c0.1,0.9,0.2,1.8,0.4,2.6l8-8.1c1.7-1.9,4.1-5,4.3-7.1
		c0-0.1,0-0.1,0-0.2v-0.4c0-0.6,0-7.9,0.2-22.7c-0.1-5.2-0.1-8.5-0.1-9.9c0-1-0.1-2-0.1-2.9c0,0,0-0.1,0-0.1
		c-0.6-2.1-2.7-4.7-4.2-6.5l-8.3-8.3C6.1,20.4,6,21.1,6,21.9z"/>
	<path class="st0" d="M7.4,15.4c3.4,3.4,9.8,9.8,9.9,9.9c0.3,0.4,0.6,0.7,0.9,1.1c-0.1-1.5-0.3-2.5-0.3-2.5
		c-0.1-2.1-1.6-5.3-3.4-7.3l-5.1-5.1C8.6,12.6,7.9,13.9,7.4,15.4z"/>
	<path class="st0" d="M100.4,19.3l-8,8.1c-1.5,1.7-3.7,4.4-4.2,6.5c0,0.1,0,0.1,0,0.2c0,0.6-0.1,1.1-0.1,1.7c0,1.3,0,8.2-0.2,22.1
		c0,2.9,0,5.6,0,7.3c0,0.1,0,0.2,0,0.3c0.1,2,0.2,3.8,0.2,5.4c0.6,2.1,2.7,4.7,4.1,6.4l8.3,8.3c0.1-0.7,0.2-1.4,0.3-2.2
		c0,0,1.5-13.7,1.5-30.7c0-16.4-1.5-30.7-1.5-30.7C100.8,21,100.6,20.1,100.4,19.3z"/>
	<path class="st0" d="M94.9,96.7c-1.1-1.1-5.3-5.2-5.4-5.3c-2-1.7-5.2-3.2-7.3-3.3c0,0-0.6-0.1-1.8-0.2c0.4,0.3,0.8,0.6,1.1,0.9
		c0.1,0.1,6.6,6.6,10.2,10.2C92.8,98.4,93.9,97.6,94.9,96.7z"/>
	<path class="st0" d="M92.3,16.4c-1.7,1.9-3.2,5.1-3.5,9.1c0.3-0.3,0.5-0.7,0.8-1c0.1-0.1,6.4-6.4,9.6-9.6c-0.5-1.3-1.2-2.5-1.9-3.6
		C95.2,13.5,92.6,16.2,92.3,16.4z"/>
	<path class="st0" d="M97.4,93.8c0.8-1.2,1.5-2.5,2-4C96,86.4,89.6,80,89.5,80c-0.3-0.3-0.5-0.6-0.8-0.9c0.1,1.5,0.3,2.3,0.3,2.3
		c0.1,2.1,1.6,5.4,3.3,7.4L97.4,93.8z"/>
</g>
<g id="big">
	<path class="st1" d="M278.3,62.3c0.4,0.2,0.9,0.4,1.4,0.4c2,0,3-1.4,3-4.3c0-0.6-0.1-1.1-0.2-1.7c-0.1-0.5-0.3-1-0.5-1.4
		c-0.2-0.4-0.6-0.7-0.9-0.9c-0.4-0.2-0.9-0.4-1.4-0.4c-2,0-3,1.4-3,4.3c0,0.6,0.1,1.1,0.2,1.6c0.1,0.5,0.3,1,0.5,1.4
		C277.6,61.7,277.9,62,278.3,62.3z"/>
	<path class="st1" d="M333,62.4c0.5,0.1,1.1,0.1,1.6,0.1c0.9,0,1.6-0.2,2.1-0.5c0.4-0.4,0.7-0.9,0.7-1.6c0-0.6-0.2-1.1-0.6-1.5
		c-0.4-0.4-1.1-0.6-2-0.6c-0.3,0-0.5,0-0.8,0c-0.3,0-0.6,0.1-0.8,0.1V62.4z"/>
	<path class="st1" d="M230.9,55.3c-0.2-0.4-0.6-0.7-0.9-0.9c-0.4-0.2-0.9-0.4-1.4-0.4c-2,0-3,1.4-3,4.3c0,0.6,0.1,1.1,0.2,1.6
		c0.1,0.5,0.3,1,0.5,1.4c0.2,0.4,0.5,0.7,0.9,0.9c0.4,0.2,0.9,0.4,1.4,0.4c2,0,3-1.4,3-4.3c0-0.6-0.1-1.1-0.2-1.7
		C231.3,56.2,231.2,55.7,230.9,55.3z"/>
	<path class="st1" d="M270.1,55.2c-0.2-0.4-0.5-0.6-0.9-0.8c-0.4-0.2-0.8-0.3-1.3-0.3c-0.8,0-1.4,0.2-1.8,0.6
		c-0.5,0.4-0.8,1-0.9,1.8V62c0.3,0.2,0.6,0.4,0.9,0.5c0.3,0.1,0.8,0.2,1.4,0.2c1,0,1.9-0.4,2.4-1.2c0.6-0.8,0.9-1.9,0.9-3.4
		c0-0.6-0.1-1.2-0.2-1.7C270.5,55.9,270.3,55.5,270.1,55.2z"/>
	<path class="st1" d="M190.9,54.7c-0.5,0.5-0.8,1.3-0.9,2.4h5.5c0-1.1-0.2-1.9-0.6-2.4c-0.4-0.5-1-0.7-1.8-0.7
		C192.2,54,191.5,54.3,190.9,54.7z"/>
	<path class="st1" d="M204.2,62.7c1,0,1.8-0.4,2.4-1.2c0.6-0.8,0.9-1.9,0.9-3.4c0-0.6-0.1-1.2-0.2-1.7c-0.1-0.5-0.3-0.9-0.5-1.3
		c-0.2-0.4-0.5-0.6-0.9-0.8c-0.4-0.2-0.8-0.3-1.4-0.3c-0.8,0-1.3,0.2-1.8,0.6c-0.5,0.4-0.8,1-0.9,1.8V62c0.3,0.2,0.6,0.4,0.9,0.5
		C203.2,62.6,203.6,62.7,204.2,62.7z"/>
	<path class="st1" d="M175.1,12c-7.3,0-8.5,5.5-8.5,11.2c0,5.8,1.2,11.2,8.5,11.2c7.3,0,8.5-5.5,8.5-11.2
		C183.5,17.4,182.4,12,175.1,12z"/>
	<path class="st1" d="M357.1,58.3c-0.3,0-0.5,0-0.8,0c-0.3,0-0.6,0.1-0.8,0.1v3.9c0.6,0.1,1.1,0.1,1.6,0.1c0.9,0,1.6-0.2,2-0.5
		c0.4-0.4,0.6-0.9,0.6-1.6c0-0.6-0.2-1.1-0.6-1.5C358.7,58.5,358,58.3,357.1,58.3z"/>
	<path class="st1" d="M169.6,54c-0.9,0-1.6,0.2-2.1,0.7c-0.5,0.5-0.8,1.3-0.9,2.4h5.5c0-1.1-0.2-1.9-0.6-2.4
		C171,54.3,170.4,54,169.6,54z"/>
	<path class="st1" d="M312.9,54c-0.9,0-1.6,0.2-2.1,0.7c-0.5,0.5-0.8,1.3-0.9,2.4h5.6c0-1.1-0.2-1.9-0.6-2.4
		C314.3,54.3,313.7,54,312.9,54z"/>
	<polygon class="st2" points="237,5.8 237,40.6 244,40.6 257.8,19.2 257.8,40.6 265.2,40.6 265.2,5.8 258.2,5.8 244.4,27.2 
		244.4,5.8 	"/>
	<polygon class="st2" points="330.1,12.8 330.1,5.8 306.6,5.8 306.6,40.7 330.1,40.7 330.1,33.7 314,33.7 314,26.4 327.7,26.4 
		327.7,19.7 314,19.7 314,12.8 	"/>
	<polygon class="st2" points="345.2,40.6 352.5,28.4 359.9,40.6 368.7,40.6 357.2,22.5 367.8,5.8 359,5.8 352.5,16.6 346.1,5.8 
		337.3,5.8 347.8,22.5 336.4,40.6 	"/>
	<path class="st2" d="M175.1,4.9c-11.8,0-15.9,8.5-15.9,18.3c0,9.8,4,18.3,15.9,18.3c11.9,0,15.9-8.4,15.9-18.3
		C191,13.3,186.9,4.9,175.1,4.9z M175.1,34.5c-7.3,0-8.5-5.5-8.5-11.2c0-5.8,1.2-11.2,8.5-11.2c7.3,0,8.5,5.5,8.5,11.2
		C183.5,29,182.4,34.5,175.1,34.5z"/>
	<polygon class="st2" points="123.7,40.6 131.1,40.6 131.1,12.8 143.4,12.8 143.4,40.6 150.8,40.6 150.8,5.8 123.7,5.8 	"/>
	<polygon class="st2" points="272.9,12.8 282.5,12.8 282.5,40.6 289.9,40.6 289.9,12.8 299.4,12.8 299.4,5.8 272.9,5.8 	"/>
	<path class="st2" d="M201.1,29.7c-0.8,2.8-2.8,4.1-5.9,4v7.1c6.6,0.3,11.5-3.4,13.1-9.4c1.4-5.3,2.3-13.7,2.7-18.6h8.4v27.8h7.4
		V5.8h-22.5C203.3,13.7,203.1,22.2,201.1,29.7z"/>
	<polygon class="st2" points="123.4,63.9 124.5,63.9 132.1,53.4 133.1,51.5 133.2,51.5 133,53.3 133,63.9 134.9,63.9 134.9,48.3 
		133.8,48.3 126.2,59 125.2,60.8 125.1,60.8 125.3,59 125.3,48.3 123.4,48.3 	"/>
	<polygon class="st2" points="147.2,63.9 147.2,52.7 145.4,52.7 145.4,57.4 140.3,57.4 140.3,52.7 138.5,52.7 138.5,63.9 
		140.3,63.9 140.3,59 145.4,59 145.4,63.9 	"/>
	<polygon class="st2" points="155.3,52.7 155.3,57.6 154.1,57.6 151,52.7 149.1,52.7 152,57.3 153.2,58.1 152.4,58.8 148.9,63.9 
		151,63.9 154.2,59 155.3,58.7 155.3,63.9 157,63.9 157,58.9 158.2,58.9 161.5,63.9 163.6,63.9 160.3,58.9 159.2,58 160,57.3 
		163.1,52.7 161.2,52.7 158.1,57.5 157,57.8 157,52.7 	"/>
	<path class="st2" d="M172.5,53.3c-0.4-0.3-0.9-0.5-1.4-0.6c-0.5-0.1-1-0.2-1.5-0.2c-1.6,0-2.8,0.5-3.7,1.5c-0.8,1-1.3,2.4-1.3,4.4
		c0,0.9,0.1,1.7,0.3,2.4c0.2,0.7,0.5,1.3,0.9,1.9c0.4,0.5,0.9,0.9,1.5,1.2c0.6,0.3,1.4,0.4,2.2,0.4c0.8,0,1.5-0.1,2.2-0.3
		c0.7-0.2,1.2-0.5,1.7-0.8l-0.7-1.3c-0.3,0.2-0.6,0.5-1.2,0.6c-0.5,0.2-1,0.3-1.5,0.3c-0.6,0-1.2-0.1-1.7-0.3
		c-0.5-0.2-0.8-0.5-1.1-0.8c-0.3-0.4-0.5-0.8-0.6-1.3c-0.1-0.5-0.2-1.1-0.2-1.8h7.2c0.1-0.6,0.1-1.1,0.1-1.6c0-0.9-0.1-1.7-0.4-2.3
		C173.2,54,172.9,53.6,172.5,53.3z M166.6,57.1c0.1-1.1,0.4-1.9,0.9-2.4c0.5-0.5,1.2-0.7,2.1-0.7c0.8,0,1.4,0.2,1.8,0.7
		c0.4,0.5,0.6,1.3,0.6,2.4H166.6z"/>
	<polygon class="st2" points="176.7,52.7 176.7,63.9 178.5,63.9 178.5,59 183.5,59 183.5,63.9 185.3,63.9 185.3,52.7 183.5,52.7 
		183.5,57.4 178.5,57.4 178.5,52.7 	"/>
	<path class="st2" d="M193,52.5c-1.6,0-2.8,0.5-3.6,1.5c-0.9,1-1.3,2.4-1.3,4.4c0,0.9,0.1,1.7,0.3,2.4c0.2,0.7,0.5,1.3,0.9,1.9
		c0.4,0.5,0.9,0.9,1.6,1.2c0.6,0.3,1.4,0.4,2.2,0.4c0.8,0,1.5-0.1,2.2-0.3c0.7-0.2,1.2-0.5,1.7-0.8l-0.7-1.3
		c-0.3,0.2-0.6,0.5-1.1,0.6c-0.5,0.2-1,0.3-1.5,0.3c-0.7,0-1.2-0.1-1.7-0.3c-0.5-0.2-0.8-0.5-1.1-0.8c-0.3-0.4-0.5-0.8-0.6-1.3
		c-0.1-0.5-0.2-1.1-0.2-1.8h7.2c0.1-0.6,0.1-1.1,0.1-1.6c0-0.9-0.1-1.7-0.4-2.3c-0.2-0.6-0.6-1-1-1.3c-0.4-0.3-0.9-0.5-1.4-0.6
		C194.1,52.5,193.6,52.5,193,52.5z M195.6,57.1H190c0.1-1.1,0.4-1.9,0.9-2.4c0.5-0.5,1.2-0.7,2.1-0.7c0.8,0,1.4,0.2,1.8,0.7
		C195.3,55.2,195.6,56,195.6,57.1z"/>
	<path class="st2" d="M202.9,64.1c0.3,0.1,0.8,0.1,1.3,0.1c0.8,0,1.5-0.1,2.1-0.4c0.6-0.3,1.2-0.7,1.6-1.2c0.5-0.5,0.8-1.2,1-1.9
		c0.2-0.8,0.4-1.6,0.4-2.5c0-2-0.4-3.4-1.1-4.3c-0.7-0.9-1.8-1.3-3.3-1.3c-0.7,0-1.3,0.1-1.9,0.4c-0.5,0.3-1,0.7-1.3,1.2h-0.1
		l-0.3-1.3h-1.2v15.7h1.8v-4.7C202.3,63.9,202.6,64.1,202.9,64.1z M201.9,56.4c0.2-0.8,0.5-1.4,0.9-1.8c0.4-0.4,1-0.6,1.8-0.6
		c0.5,0,1,0.1,1.4,0.3c0.4,0.2,0.7,0.5,0.9,0.8c0.2,0.3,0.4,0.8,0.5,1.3c0.1,0.5,0.2,1.1,0.2,1.7c0,1.5-0.3,2.6-0.9,3.4
		c-0.6,0.8-1.4,1.2-2.4,1.2c-0.6,0-1-0.1-1.4-0.2c-0.4-0.1-0.6-0.3-0.9-0.5V56.4z"/>
	<polygon class="st2" points="212.2,52.7 212.2,63.9 214,63.9 214,59 219.1,59 219.1,63.9 220.9,63.9 220.9,52.7 219.1,52.7 
		219.1,57.4 214,57.4 214,52.7 	"/>
	<path class="st2" d="M232.3,54.1c-0.4-0.5-0.9-0.9-1.5-1.2c-0.6-0.3-1.3-0.4-2.2-0.4c-1.6,0-2.8,0.5-3.6,1.5
		c-0.8,1-1.3,2.5-1.3,4.4c0,0.9,0.1,1.7,0.3,2.4c0.2,0.7,0.5,1.3,0.9,1.9c0.4,0.5,0.9,0.9,1.5,1.2c0.6,0.3,1.3,0.4,2.2,0.4
		c1.6,0,2.8-0.5,3.6-1.5c0.8-1,1.3-2.5,1.3-4.4c0-0.9-0.1-1.7-0.3-2.4C233,55.2,232.7,54.6,232.3,54.1z M228.6,62.7
		c-0.5,0-1-0.1-1.4-0.4c-0.4-0.2-0.7-0.5-0.9-0.9c-0.2-0.4-0.4-0.8-0.5-1.4c-0.1-0.5-0.2-1.1-0.2-1.6c0-2.9,1-4.3,3-4.3
		c0.6,0,1,0.1,1.4,0.4c0.4,0.2,0.7,0.5,0.9,0.9c0.2,0.4,0.4,0.8,0.5,1.4c0.1,0.5,0.2,1.1,0.2,1.7C231.6,61.2,230.6,62.7,228.6,62.7z
		"/>
	<rect x="235.9" y="56.7" class="st2" width="5.4" height="1.7"/>
	<path class="st2" d="M248.7,54c0.5,0,0.9,0.1,1.3,0.2c0.4,0.1,0.8,0.3,1.1,0.5l0.5-1.5c-0.4-0.2-0.9-0.4-1.4-0.5
		c-0.5-0.1-1.1-0.2-1.8-0.2c-1.6,0-2.8,0.5-3.6,1.5c-0.8,1-1.3,2.5-1.3,4.4c0,0.9,0.1,1.7,0.3,2.4c0.2,0.7,0.5,1.3,0.8,1.9
		c0.4,0.5,0.9,0.9,1.5,1.2c0.6,0.3,1.3,0.4,2.2,0.4c0.7,0,1.3-0.1,1.9-0.3c0.6-0.2,1.1-0.4,1.6-0.7l-0.6-1.4c-0.3,0.2-0.6,0.4-1,0.6
		c-0.4,0.2-0.9,0.2-1.5,0.2c-0.6,0-1.2-0.1-1.6-0.4c-0.4-0.2-0.8-0.6-1-0.9c-0.3-0.4-0.4-0.9-0.6-1.4c-0.1-0.5-0.2-1.1-0.2-1.6
		C245.5,55.5,246.6,54,248.7,54z"/>
	<polygon class="st2" points="258,63.9 258,54.3 261.6,54.3 261.6,52.7 252.7,52.7 252.7,54.3 256.2,54.3 256.2,63.9 	"/>
	<path class="st2" d="M268.2,52.5c-0.7,0-1.3,0.1-1.9,0.4c-0.5,0.3-1,0.7-1.3,1.2h-0.1l-0.4-1.3h-1.2v15.7h1.8v-4.7
		c0.4,0.2,0.7,0.3,1,0.3c0.3,0.1,0.8,0.1,1.3,0.1c0.8,0,1.5-0.1,2.1-0.4c0.6-0.3,1.2-0.7,1.6-1.2c0.5-0.5,0.8-1.2,1.1-1.9
		c0.2-0.8,0.4-1.6,0.4-2.5c0-2-0.4-3.4-1.1-4.3C270.8,52.9,269.7,52.5,268.2,52.5z M269.8,61.5c-0.6,0.8-1.4,1.2-2.4,1.2
		c-0.6,0-1-0.1-1.4-0.2c-0.3-0.1-0.6-0.3-0.9-0.5v-5.5c0.2-0.8,0.5-1.4,0.9-1.8c0.4-0.4,1-0.6,1.8-0.6c0.5,0,1,0.1,1.3,0.3
		c0.4,0.2,0.7,0.5,0.9,0.8c0.2,0.3,0.4,0.8,0.5,1.3c0.1,0.5,0.2,1.1,0.2,1.7C270.8,59.6,270.5,60.7,269.8,61.5z"/>
	<path class="st2" d="M279.7,64.2c1.6,0,2.8-0.5,3.6-1.5c0.8-1,1.3-2.5,1.3-4.4c0-0.9-0.1-1.7-0.3-2.4c-0.2-0.7-0.5-1.3-0.9-1.9
		c-0.4-0.5-0.9-0.9-1.5-1.2c-0.6-0.3-1.3-0.4-2.2-0.4c-1.6,0-2.8,0.5-3.6,1.5c-0.8,1-1.3,2.5-1.3,4.4c0,0.9,0.1,1.7,0.3,2.4
		c0.2,0.7,0.5,1.3,0.9,1.9c0.4,0.5,0.9,0.9,1.5,1.2C278.1,64.1,278.9,64.2,279.7,64.2z M276.8,60c-0.1-0.5-0.2-1.1-0.2-1.6
		c0-2.9,1-4.3,3-4.3c0.5,0,1,0.1,1.4,0.4c0.4,0.2,0.7,0.5,0.9,0.9c0.2,0.4,0.4,0.8,0.5,1.4c0.1,0.5,0.2,1.1,0.2,1.7
		c0,2.9-1,4.3-3,4.3c-0.6,0-1-0.1-1.4-0.4c-0.4-0.2-0.7-0.5-0.9-0.9C277.1,61,277,60.5,276.8,60z"/>
	<polygon class="st2" points="289.2,52.7 287.4,52.7 287.4,63.9 288.5,63.9 293.5,57.4 294.4,55.9 294.5,55.9 294.4,57.3 
		294.4,63.9 296.2,63.9 296.2,52.7 295.1,52.7 290.1,59.5 289.2,60.9 289.1,60.9 289.2,59.6 	"/>
	<polygon class="st2" points="298,54.3 301.5,54.3 301.5,63.9 303.3,63.9 303.3,54.3 306.8,54.3 306.8,52.7 298,52.7 	"/>
	<path class="st2" d="M317.1,56.9c0-0.9-0.1-1.7-0.4-2.3c-0.2-0.6-0.6-1-1-1.3c-0.4-0.3-0.9-0.5-1.4-0.6c-0.5-0.1-1-0.2-1.5-0.2
		c-1.6,0-2.8,0.5-3.7,1.5c-0.8,1-1.3,2.4-1.3,4.4c0,0.9,0.1,1.7,0.3,2.4c0.2,0.7,0.5,1.3,0.9,1.9c0.4,0.5,0.9,0.9,1.6,1.2
		c0.6,0.3,1.4,0.4,2.2,0.4c0.8,0,1.5-0.1,2.2-0.3c0.7-0.2,1.2-0.5,1.7-0.8l-0.7-1.3c-0.3,0.2-0.6,0.5-1.1,0.6
		c-0.5,0.2-1,0.3-1.5,0.3c-0.7,0-1.2-0.1-1.7-0.3c-0.5-0.2-0.8-0.5-1.1-0.8c-0.3-0.4-0.5-0.8-0.6-1.3c-0.1-0.5-0.2-1.1-0.2-1.8h7.2
		C317.1,57.9,317.1,57.4,317.1,56.9z M309.8,57.1c0.1-1.1,0.4-1.9,0.9-2.4c0.5-0.5,1.2-0.7,2.1-0.7c0.8,0,1.4,0.2,1.8,0.7
		c0.4,0.5,0.6,1.3,0.6,2.4H309.8z"/>
	<path class="st2" d="M327.7,63.9V52.7h-6.7c0,2-0.1,3.7-0.2,4.9c-0.1,1.3-0.3,2.2-0.4,3c-0.2,0.7-0.4,1.2-0.6,1.4
		c-0.2,0.3-0.5,0.4-0.8,0.4c-0.2,0-0.4,0-0.6-0.1l-0.3,1.5c0.2,0.1,0.4,0.1,0.6,0.2c0.2,0,0.5,0.1,0.7,0.1c0.5,0,0.9-0.2,1.2-0.5
		c0.3-0.3,0.6-0.7,0.8-1.2c0.2-0.5,0.4-1.1,0.6-1.7c0.1-0.7,0.3-1.4,0.3-2.1c0.1-0.7,0.2-1.4,0.2-2.2c0-0.7,0.1-1.4,0.1-2h3.2v9.6
		H327.7z"/>
	<path class="st2" d="M331.2,52.7v11.2c1,0.1,2,0.1,3,0.1c1.7,0,3-0.3,3.8-0.9c0.8-0.6,1.2-1.6,1.2-3c0-0.5-0.1-0.9-0.2-1.3
		c-0.2-0.4-0.4-0.8-0.7-1c-0.3-0.3-0.8-0.5-1.3-0.7c-0.5-0.2-1.2-0.2-2-0.2c-0.3,0-0.6,0-0.9,0c-0.3,0-0.7,0.1-1,0.1v-4.3H331.2z
		 M333.8,58.4c0.3,0,0.6,0,0.8,0c0.9,0,1.6,0.2,2,0.6c0.4,0.4,0.6,0.9,0.6,1.5c0,0.7-0.2,1.2-0.7,1.6c-0.5,0.4-1.2,0.5-2.1,0.5
		c-0.5,0-1-0.1-1.6-0.1v-3.9C333.3,58.4,333.5,58.4,333.8,58.4z"/>
	<polygon class="st2" points="341.6,52.7 341.6,63.9 343.4,63.9 343.4,59 348.5,59 348.5,63.9 350.3,63.9 350.3,52.7 348.5,52.7 
		348.5,57.4 343.4,57.4 343.4,52.7 	"/>
	<path class="st2" d="M361.3,58.9c-0.1-0.4-0.4-0.8-0.7-1c-0.3-0.3-0.7-0.5-1.2-0.7c-0.5-0.2-1.2-0.2-1.9-0.2c-0.3,0-0.6,0-0.9,0
		c-0.3,0-0.7,0.1-1,0.1v-4.3h-1.8v11.2c1,0.1,2,0.1,3,0.1c1.7,0,2.9-0.3,3.7-0.9c0.8-0.6,1.1-1.6,1.1-3
		C361.5,59.8,361.4,59.3,361.3,58.9z M359,62c-0.4,0.3-1,0.5-2,0.5c-0.5,0-1-0.1-1.6-0.1v-3.9c0.3-0.1,0.5-0.1,0.8-0.1
		c0.3,0,0.6,0,0.8,0c0.9,0,1.5,0.2,1.9,0.6c0.4,0.4,0.6,0.9,0.6,1.5C359.6,61.1,359.4,61.6,359,62z"/>
	<rect x="363.2" y="52.7" class="st2" width="1.8" height="11.2"/>
	<path class="st2" d="M370.8,50.7c0.3,0.2,0.7,0.4,1.1,0.5c0.4,0.1,0.8,0.2,1.2,0.2c0.9,0,1.6-0.2,2.3-0.7c0.6-0.5,1-1.1,1.2-2
		l-1.3-0.4c-0.1,0.6-0.4,1.1-0.8,1.4c-0.4,0.3-0.8,0.4-1.3,0.4c-0.5,0-0.9-0.1-1.3-0.4c-0.4-0.3-0.6-0.8-0.8-1.4l-1.5,0.5
		c0.1,0.5,0.2,0.8,0.5,1.2C370.2,50.3,370.5,50.5,370.8,50.7z"/>
	<polygon class="st2" points="371.2,59.5 370.3,60.9 370.2,60.9 370.3,59.6 370.3,52.7 368.5,52.7 368.5,63.9 369.5,63.9 
		374.5,57.4 375.5,55.9 375.5,55.9 375.5,57.3 375.5,63.9 377.2,63.9 377.2,52.7 376.2,52.7 	"/>
	<polygon class="st2" points="130.4,87 132.2,87 132.2,76.2 131.2,76.2 126.3,82.8 125.4,84.1 125.4,84.1 125.4,82.8 125.4,76.2 
		123.7,76.2 123.7,87 124.7,87 129.6,80.7 130.4,79.3 130.5,79.3 130.4,80.6 	"/>
	<polygon class="st2" points="143.9,87 143.9,76.2 142.2,76.2 142.2,80.7 137.3,80.7 137.3,76.2 135.5,76.2 135.5,87 137.3,87 
		137.3,82.2 142.2,82.2 142.2,87 	"/>
	<path class="st2" d="M147.7,85.7c0.4,0.5,0.8,0.9,1.4,1.2c0.6,0.3,1.3,0.4,2.1,0.4c0.7,0,1.3-0.1,1.9-0.2c0.6-0.2,1.1-0.4,1.5-0.7
		L154,85c-0.3,0.2-0.6,0.4-1,0.5c-0.4,0.2-0.9,0.2-1.4,0.2c-0.6,0-1.1-0.1-1.5-0.4c-0.4-0.2-0.7-0.5-1-0.9c-0.2-0.4-0.4-0.8-0.5-1.3
		c-0.1-0.5-0.2-1-0.2-1.6c0-2.8,1-4.1,3.1-4.1c0.5,0,0.9,0.1,1.3,0.2c0.4,0.1,0.8,0.3,1.1,0.4l0.5-1.5c-0.4-0.2-0.8-0.4-1.3-0.5
		c-0.5-0.1-1.1-0.2-1.8-0.2c-1.5,0-2.7,0.5-3.5,1.5c-0.8,1-1.2,2.4-1.2,4.2c0,0.9,0.1,1.6,0.2,2.3C147,84.7,147.3,85.3,147.7,85.7z"
		/>
	<polygon class="st2" points="160.5,87 160.5,77.7 163.9,77.7 163.9,76.2 155.4,76.2 155.4,77.7 158.8,77.7 158.8,87 	"/>
	<polygon class="st2" points="172.4,87 174.1,87 174.1,76.2 173.1,76.2 168.2,82.8 167.4,84.1 167.3,84.1 167.4,82.8 167.4,76.2 
		165.6,76.2 165.6,87 166.6,87 171.5,80.7 172.4,79.3 172.4,79.3 172.4,80.6 	"/>
	<polygon class="st2" points="175.8,77.7 179.3,77.7 179.3,87 181,87 181,77.7 184.4,77.7 184.4,76.2 175.8,76.2 	"/>
	<path class="st2" d="M187,89.9c-0.2,0-0.4,0-0.5-0.1l-0.3,1.5c0.3,0.2,0.8,0.2,1.3,0.2c0.5,0,0.9-0.2,1.3-0.5
		c0.4-0.3,0.7-0.7,1-1.2c0.3-0.5,0.6-1.1,0.8-1.8c0.2-0.7,0.5-1.3,0.7-2l3.2-9.7h-1.8l-2.1,7l-0.5,2.1h-0.1l-0.6-2.1l-2.6-7h-2
		l4.4,10.8c-0.2,1-0.6,1.8-0.9,2.2C187.7,89.7,187.4,89.9,187,89.9z"/>
	<polygon class="st2" points="194.6,77.7 198,77.7 198,87 199.7,87 199.7,77.7 203.1,77.7 203.1,76.2 194.6,76.2 	"/>
</g>
<g id="small">
	<polygon class="st2" points="132.3,17.8 118.1,17.8 118.1,89.8 128.8,89.8 155.6,50.2 160.5,40.5 161,40.5 160.2,49.9 160.2,89.8 
		174.3,89.8 174.3,17.8 163.8,17.8 136.9,56.7 131.8,66.7 131.2,66.7 132.3,57 	"/>
	<path class="st2" d="M218.2,28.9c3.1,0,5.7,0.2,7.9,0.5c2.2,0.3,4,0.9,5.6,1.7l2.8-12c-1.9-0.8-4.2-1.4-7-2
		c-2.9-0.5-6.3-0.8-10.5-0.8c-3.8,0-7.7,0.6-11.5,1.9c-3.8,1.3-7.3,3.4-10.4,6.3c-3.1,2.9-5.7,6.8-7.6,11.5
		c-2,4.8-2.9,10.7-2.9,17.8c0,6.8,0.9,12.6,2.6,17.3c1.7,4.8,4.1,8.6,7,11.6c2.9,3,6.4,5.1,10.3,6.5c3.9,1.3,8,2,12.3,2
		c3.6,0,7.1-0.3,10.5-1c3.4-0.7,6.2-1.8,8.4-3.4l-2.9-11.5c-1.6,1-3.4,1.8-5.6,2.4c-2.1,0.6-4.7,0.9-7.8,0.9c-3.3,0-6.2-0.6-8.7-1.8
		c-2.5-1.2-4.6-2.9-6.3-5.1c-1.7-2.2-2.9-4.8-3.8-7.8c-0.8-3.1-1.2-6.5-1.2-10.2c0-8.5,1.7-14.8,5.2-18.9
		C208,30.9,212.5,28.9,218.2,28.9z"/>
	<polygon class="st2" points="263,56.7 258,66.7 257.4,66.7 258.4,57 258.4,17.8 244.3,17.8 244.3,89.8 254.9,89.8 281.8,50.2 
		286.6,40.5 287.1,40.5 286.3,49.9 286.3,89.8 300.4,89.8 300.4,17.8 289.9,17.8 	"/>
</g>
</svg>
