<svg xmlns="http://www.w3.org/2000/svg" xmlns:xlink="http://www.w3.org/1999/xlink" version="1.1" width="98" height="100" style="" xml:space="preserve"><rect id="backgroundrect" width="100%" height="100%" x="0" y="0" fill="none" stroke="none" style="" class="selected"/>
<style type="text/css">
	.st0{fill:#28777e;}
	.st1{fill:none;}
	.st2{fill:#39373A;}
		#big{
    	display:block;
    }
	#small{
    	display:none;
    }
	
    @media screen and (max-width: 200px){
    	#small{
    		display:block;
    	}
    	#big{
    		display:none;
    	}
    }

</style>



<g class="currentLayer" style=""><title>Layer 1</title><g id="symbol" class="">
	<path class="st0" d="M7.504499540664256,5.6 c1.1,1.1 5.3,5.3 5.3,5.3 c2,1.7000000000000002 5.2,3.3 7.3,3.4 c0,0 0.6000000000000002,0 1.8,0.1 c-0.4,-0.3000000000000001 -0.7000000000000002,-0.5 -1.1,-0.8 c-0.1,-0.1 -6.6,-6.7 -10.2,-10.2 C9.504499540664256,3.8999999999999995 8.504499540664256,4.699999999999999 7.504499540664256,5.6 z" id="svg_1"/>
	<path class="st0" d="M19.204499540664255,82 c0.8,-0.2 1.7000000000000002,-0.2 2.3,-0.3000000000000001 c0.6000000000000002,-0.1 8.4,-1.2 27.4,-1.2 c2.1,0 4,0 5.9,0.1 c14.7,0.2 20.9,1.1 21.5,1.2 c0.6000000000000002,0.1 1.5,0.1 2.3,0.3000000000000001 L52.904499540664254,56.3 c-1.2,0.7000000000000002 -2.5,1.1 -3.9,1.1 c-1.4,0 -2.8,-0.4 -4,-1.1 L19.204499540664255,82 z" id="svg_2"/>
	<path class="st0" d="M80.80449954066425,22.8 v-0.2 h0 c0.1,-0.9 0.2,-1.7000000000000002 0.3000000000000001,-2.6 L55.404499540664254,45.8 c0.7000000000000002,1.2 1.2,2.5 1.2,3.9 c0,1.4 -0.5,2.8 -1.2,4 l25.8,25.7 c-0.2,-0.8 -0.3000000000000001,-1.7000000000000002 -0.3000000000000001,-2.4 c-0.1,-0.7000000000000002 -1.2,-8.4 -1.2,-27.3 c0,-2.1 0,-4 0,-5.9 C79.90449954066426,29.2 80.80449954066425,23 80.80449954066425,22.8 z" id="svg_3"/>
	<path class="st0" d="M75.90449954066426,17.9 c-0.2,0 -8,1.2 -27,1.2 c-2.1,0 -4.1,0 -5.9,0 c-14.6,-0.2 -20.9,-1.1 -21.5,-1.2 c-0.6000000000000002,0 -1.5,-0.2 -2.3,-0.4 l25.7,25.8 c1.2,-0.7000000000000002 2.5,-1.1 4,-1.1 c1.5,0 2.8,0.4 3.9,1.1 l25.8,-25.8 c-0.8,0.2 -1.7000000000000002,0.3000000000000001 -2.6,0.4 H75.90449954066426 z" id="svg_4"/>
	<path class="st0" d="M53.004499540664256,49.8 c0,-2.2 -1.8,-4 -4,-4 c-2.2,0 -4,1.8 -4,4 c0,2.2 1.7000000000000002,4.1 4,4.1 C51.20449954066426,53.8 53.004499540664256,52 53.004499540664256,49.8 z" id="svg_5"/>
	<path class="st0" d="M21.504499540664256,85.9 c0.3000000000000001,-0.3000000000000001 0.7000000000000002,-0.6000000000000002 1,-0.8 c-1.5,0.1 -2.4,0.2 -2.4,0.2 c-2.1,0.1 -5.3,1.6 -7.3,3.3 L7.504499540664256,94 c1.1,1 2.3,1.8 3.5,2.4 C14.804499540664256,92.7 21.404499540664254,86 21.504499540664256,85.9 z" id="svg_6"/>
	<path class="st0" d="M16.704499540664255,79.5 L42.504499540664256,53.7 c-0.7000000000000002,-1.2 -1.2,-2.5 -1.2,-3.9 c0,-1.4 0.5,-2.7 1.2,-3.9 L16.704499540664255,20.099999999999998 c0.2,0.8 0.3000000000000001,1.7000000000000002 0.4,2.3 c0.1,0.6000000000000002 1.2,8.4 1.2,27.4 c0,18.9 -1.1,26.7 -1.2,27.3 C17.004499540664256,77.8 16.804499540664256,78.7 16.704499540664255,79.5 z" id="svg_7"/>
	<path class="st0" d="M76.30449954066425,13.7 c-0.3000000000000001,0.2 -0.6000000000000002,0.4 -0.8,0.6000000000000002 H75.50449954066426 c0.1,0 0.1,0 0.2,0 c4.1,-0.2 7.3,-1.7000000000000002 9.3,-3.4 l5.4,-5.3 c-1.1,-1 -2.3,-1.8 -3.6,-2.4 C83.00449954066426,6.899999999999999 76.40449954066426,13.599999999999998 76.30449954066425,13.7 z" id="svg_8"/>
	<path class="st0" d="M13.604499540664257,76.60000000000001 c-0.3000000000000001,0.4 -0.6000000000000002,0.8 -1,1.2 c-0.1,0.1 -6.4,6.4 -9.6,9.6 c0.5,1.3 1.1,2.6 1.9,3.6 c1.1,-1.1 5.1,-5.1 5.1,-5.2 c1.7000000000000002,-1.9 3.3,-5.2 3.4,-7.3 C13.404499540664254,78.60000000000001 13.504499540664256,77.9 13.604499540664257,76.60000000000001 z" id="svg_9"/>
	<path class="st0" d="M48.904499540664254,99.60000000000001 c21.8,0 30.6,-1.4 30.6,-1.4 c1.3,-0.1 2.5,-0.2 3.6,-0.5 l-8.9,-8.9 c-1.7000000000000002,-1.5 -4.4,-3.7 -6.5,-4.2 c-0.1,0 -0.1,0 -0.1,0 c-0.7000000000000002,0 -1.4,-0.1 -2.1,-0.1 c-1.7000000000000002,0 -8.3,0 -21.8,-0.1 c-4.5,0 -7.4,0.1 -9.1,0.1 c-1.3,0 -2.6,0 -3.7,0.1 c0,0 -0.1,0 -0.1,0 c-2.1,0.6000000000000002 -4.8,2.7 -6.5,4.2 l-9.2,9.2 c1,0.2 2.1,0.3000000000000001 3.2,0.4 C18.304499540664256,98.2 27.104499540664257,99.60000000000001 48.904499540664254,99.60000000000001 z" id="svg_10"/>
	<path class="st0" d="M48.904499540664254,-8.881784197001252e-16 c-21.8,0 -30.6,1.3 -30.6,1.3 c-1.3,0.1 -2.5,0.3000000000000001 -3.6,0.5 l8.9,8.9 c1.7000000000000002,1.5 4.4,3.7 6.5,4.2 c0.1,0 0.1,0.1 0.1,0.1 c0.7000000000000002,0 1.4,0.1 2.2,0.1 c1.8,0 8.3,0 21.7,0.2 c4.1,0 6.9,0 8.6,-0.1 c1.6,-0.1 3.1,-0.2 4.4,-0.2 c2.1,-0.6000000000000002 4.7,-2.6 6.4,-4.1 l9.2,-9.2 c-1,-0.2 -2.1,-0.4 -3.2,-0.4 C79.50449954066426,1.299999999999999 70.70449954066426,-8.881784197001252e-16 48.904499540664254,-8.881784197001252e-16 z" id="svg_11"/>
	<path class="st0" d="M1.5044995406642556,19.099999999999998 c0,0 -1.5,14.3 -1.5,30.7 C-0.09550045933574405,66.2 1.5044995406642556,80.5 1.5044995406642556,80.5 c0.1,0.9 0.2,1.8 0.4,2.6 l8,-8.1 c1.7000000000000002,-1.9 4.1,-5 4.3,-7.1 c0,-0.1 0,-0.1 0,-0.2 v-0.4 c0,-0.6000000000000002 0,-7.9 0.2,-22.7 c-0.1,-5.2 -0.1,-8.5 -0.1,-9.9 c0,-1 -0.1,-2 -0.1,-2.9 c0,0 0,-0.1 0,-0.1 c-0.6000000000000002,-2.1 -2.7,-4.7 -4.2,-6.5 l-8.3,-8.3 C1.6044995406642555,17.599999999999998 1.5044995406642556,18.3 1.5044995406642556,19.099999999999998 z" id="svg_12"/>
	<path class="st0" d="M2.904499540664256,12.6 c3.4,3.4 9.8,9.8 9.9,9.9 c0.3000000000000001,0.4 0.6000000000000002,0.7000000000000002 0.9,1.1 c-0.1,-1.5 -0.3000000000000001,-2.5 -0.3000000000000001,-2.5 c-0.1,-2.1 -1.6,-5.3 -3.4,-7.3 l-5.1,-5.1 C4.104499540664255,9.799999999999999 3.404499540664256,11.1 2.904499540664256,12.6 z" id="svg_13"/>
	<path class="st0" d="M95.90449954066426,16.5 l-8,8.1 c-1.5,1.7000000000000002 -3.7,4.4 -4.2,6.5 c0,0.1 0,0.1 0,0.2 c0,0.6000000000000002 -0.1,1.1 -0.1,1.7000000000000002 c0,1.3 0,8.2 -0.2,22.1 c0,2.9 0,5.6 0,7.3 c0,0.1 0,0.2 0,0.3000000000000001 c0.1,2 0.2,3.8 0.2,5.4 c0.6000000000000002,2.1 2.7,4.7 4.1,6.4 l8.3,8.3 c0.1,-0.7000000000000002 0.2,-1.4 0.3000000000000001,-2.2 c0,0 1.5,-13.7 1.5,-30.7 c0,-16.4 -1.5,-30.7 -1.5,-30.7 C96.30449954066425,18.2 96.10449954066425,17.3 95.90449954066426,16.5 z" id="svg_14"/>
	<path class="st0" d="M90.40449954066426,93.9 c-1.1,-1.1 -5.3,-5.2 -5.4,-5.3 c-2,-1.7000000000000002 -5.2,-3.2 -7.3,-3.3 c0,0 -0.6000000000000002,-0.1 -1.8,-0.2 c0.4,0.3000000000000001 0.8,0.6000000000000002 1.1,0.9 c0.1,0.1 6.6,6.6 10.2,10.2 C88.30449954066425,95.60000000000001 89.40449954066426,94.8 90.40449954066426,93.9 z" id="svg_15"/>
	<path class="st0" d="M87.80449954066425,13.599999999999998 c-1.7000000000000002,1.9 -3.2,5.1 -3.5,9.1 c0.3000000000000001,-0.3000000000000001 0.5,-0.7000000000000002 0.8,-1 c0.1,-0.1 6.4,-6.4 9.6,-9.6 c-0.5,-1.3 -1.2,-2.5 -1.9,-3.6 C90.70449954066426,10.7 88.10449954066425,13.399999999999999 87.80449954066425,13.599999999999998 z" id="svg_16"/>
	<path class="st0" d="M92.90449954066426,91 c0.8,-1.2 1.5,-2.5 2,-4 C91.50449954066426,83.60000000000001 85.10449954066425,77.2 85.00449954066426,77.2 c-0.3000000000000001,-0.3000000000000001 -0.5,-0.6000000000000002 -0.8,-0.9 c0.1,1.5 0.3000000000000001,2.3 0.3000000000000001,2.3 c0.1,2.1 1.6,5.4 3.3,7.4 L92.90449954066426,91 z" id="svg_17"/>
</g><g id="small" class="">
	<polygon class="st2" points="127.8045044997707,14.999998998641967 113.60449992213398,14.999998998641967 113.60449992213398,86.99999995231629 124.3045044997707,86.99999995231629 151.1045075515285,47.40000147819519 156.0045014480129,37.70000071525574 156.5045014480129,37.70000071525574 155.70449839625508,47.100002241134646 155.70449839625508,86.99999995231629 169.8045044997707,86.99999995231629 169.8045044997707,14.999998998641967 159.3045044997707,14.999998998641967 132.40449534449726,53.90000147819519 127.3045044997707,63.89999766349793 126.70449839625508,63.89999766349793 127.8045044997707,54.20000071525574 " id="svg_67"/>
	<path class="st2" d="M213.70449954066424,26.099999999999998 c3.1,0 5.7,0.2 7.9,0.5 c2.2,0.3000000000000001 4,0.9 5.6,1.7000000000000002 l2.8,-12 c-1.9,-0.8 -4.2,-1.4 -7,-2 c-2.9,-0.5 -6.3,-0.8 -10.5,-0.8 c-3.8,0 -7.7,0.6000000000000002 -11.5,1.9 c-3.8,1.3 -7.3,3.4 -10.4,6.3 c-3.1,2.9 -5.7,6.8 -7.6,11.5 c-2,4.8 -2.9,10.7 -2.9,17.8 c0,6.8 0.9,12.6 2.6,17.3 c1.7000000000000002,4.8 4.1,8.6 7,11.6 c2.9,3 6.4,5.1 10.3,6.5 c3.9,1.3 8,2 12.3,2 c3.6,0 7.1,-0.3000000000000001 10.5,-1 c3.4,-0.7000000000000002 6.2,-1.8 8.4,-3.4 l-2.9,-11.5 c-1.6,1 -3.4,1.8 -5.6,2.4 c-2.1,0.6000000000000002 -4.7,0.9 -7.8,0.9 c-3.3,0 -6.2,-0.6000000000000002 -8.7,-1.8 c-2.5,-1.2 -4.6,-2.9 -6.3,-5.1 c-1.7000000000000002,-2.2 -2.9,-4.8 -3.8,-7.8 c-0.8,-3.1 -1.2,-6.5 -1.2,-10.2 c0,-8.5 1.7000000000000002,-14.8 5.2,-18.9 C203.50449954066426,28.099999999999998 208.00449954066426,26.099999999999998 213.70449954066424,26.099999999999998 z" id="svg_68"/>
	<polygon class="st2" points="258.5044861892238,53.90000147819519 253.5045014480129,63.89999766349793 252.90449534449726,63.89999766349793 253.90449534449726,54.20000071525574 253.90449534449726,14.999998998641967 239.8045044997707,14.999998998641967 239.8045044997707,86.99999995231629 250.40449534449726,86.99999995231629 277.3044739821926,47.40000147819519 282.10449229273945,37.70000071525574 282.60449229273945,37.70000071525574 281.8044739821926,47.100002241134646 281.8044739821926,86.99999995231629 295.9044800857082,86.99999995231629 295.9044800857082,14.999998998641967 285.4044800857082,14.999998998641967 " id="svg_69"/>
</g></g></svg>